<svg id="Layer_1" data-name="Layer 1" xmlns="http://www.w3.org/2000/svg" viewBox="0 0 423.28 496.52"><defs><style>.cls-1{fill:#1b1b1b;}.cls-2{fill:#fff;}</style></defs><title>marker-icon-l</title><path class="cls-1" d="M256,8.14c-116.88,0-211.64,94.75-211.64,211.64C44.36,380.14,256,504.66,256,504.66S467.64,380.14,467.64,219.77C467.64,102.89,372.88,8.14,256,8.14Z" transform="translate(-44.36 -8.14)"/><path class="cls-2" d="M275.92,111.2h0.36a4.27,4.27,0,0,0,4.31-4.23V98.5a4.27,4.27,0,0,0-4.31-4.23H235.72a4.27,4.27,0,0,0-4.31,4.23V107a4.27,4.27,0,0,0,4.31,4.23h0.36l-26.86,137V392.35h93.56V248.18Z" transform="translate(-44.36 -8.14)"/></svg>