<svg id="Layer_1" data-name="Layer 1" xmlns="http://www.w3.org/2000/svg" viewBox="0 0 423.28 496.52"><defs><style>.cls-1{fill:#1b1b1b;}.cls-2{fill:#fff;}</style></defs><title>marker-icon-sh</title><path class="cls-1" d="M256,8.14c-116.88,0-211.64,94.75-211.64,211.64C44.36,380.14,256,504.66,256,504.66S467.64,380.14,467.64,219.77C467.64,102.89,372.88,8.14,256,8.14Z" transform="translate(-44.36 -8.14)"/><path class="cls-2" d="M247.21,8.36V119.92H129.27V338.57H247.21V499.19c5.59,3.59,8.79,5.47,8.79,5.47s2.6-1.53,7.21-4.46V8.32c-2.4-.08-4.79-0.18-7.21-0.18C253.05,8.14,250.13,8.24,247.21,8.36ZM245.54,155.7a4.31,4.31,0,0,0-4.31,4.31v1.72a4.31,4.31,0,0,0,4.31,4.31H244l-16.1,83.66v73H214v-73L197.94,166h-1.51a4.31,4.31,0,0,0,4.31-4.31V160a4.31,4.31,0,0,0-4.31-4.31H175.57a4.31,4.31,0,0,0-4.31,4.31v1.72a4.31,4.31,0,0,0,4.31,4.31h-1.51L158,249.71v73H145.11v-187h102.1V155.7h-1.66Z" transform="translate(-44.36 -8.14)"/><path class="cls-2" d="M365.11,146.9H317.62a17.44,17.44,0,0,0-17.44,17.44v64.93l11.18,11.19,13,111.23h34l13-111.23,11.18-11.19V164.34A17.44,17.44,0,0,0,365.11,146.9Z" transform="translate(-44.36 -8.14)"/><circle class="cls-2" cx="297" cy="106.36" r="23.5"/></svg>