<svg id="Layer_1" data-name="Layer 1" xmlns="http://www.w3.org/2000/svg" viewBox="0 0 423.28 496.52"><defs><style>.cls-1{fill:#1b1b1b;}.cls-2{fill:#fff;}</style></defs><title>marker-icon-ls</title><path class="cls-1" d="M256,8.14c-116.88,0-211.64,94.75-211.64,211.64C44.36,380.14,256,504.66,256,504.66S467.64,380.14,467.64,219.77C467.64,102.89,372.88,8.14,256,8.14Z" transform="translate(-44.36 -8.14)"/><path class="cls-2" d="M193.22,112.71a3.63,3.63,0,0,0,3.67-3.6v-7.2a3.63,3.63,0,0,0-3.67-3.6H158.74a3.63,3.63,0,0,0-3.67,3.6v7.2a3.63,3.63,0,0,0,3.67,3.6h0.31L136.22,229.14V351.69h79.53V229.14L192.91,112.71h0.31Z" transform="translate(-44.36 -8.14)"/><path class="cls-2" d="M248,8.34V499.69c5.09,3.25,8,5,8,5s2.91-1.72,8-5V8.34c-2.66-.1-5.32-0.2-8-0.2S250.66,8.24,248,8.34Z" transform="translate(-44.36 -8.14)"/><path class="cls-2" d="M365.9,146.9H318.41A17.44,17.44,0,0,0,301,164.34v64.93l11.19,11.19,13,111.23h34l13-111.23,11.19-11.19V164.34A17.44,17.44,0,0,0,365.9,146.9Z" transform="translate(-44.36 -8.14)"/><circle class="cls-2" cx="297.79" cy="106.36" r="23.5"/></svg>