<svg id="Layer_1" data-name="Layer 1" xmlns="http://www.w3.org/2000/svg" viewBox="0 0 423.28 496.52"><defs><style>.cls-1{fill:#1b1b1b;}.cls-2{fill:#fff;}</style></defs><title>marker-icon-s</title><path class="cls-1" d="M211.64,0C94.76,0,0,94.75,0,211.64,0,372,211.64,496.52,211.64,496.52S423.28,372,423.28,211.63C423.28,94.75,328.52,0,211.64,0Z" transform="translate(0 0)"/><path class="cls-2" d="M259.64,160.95a17.44,17.44,0,0,0-17.44-17.44H181.11a17.44,17.44,0,0,0-17.47,17.41v78.53l13,13L191.75,382H231.4l15.11-129.56,13-13v-78.5h0.13Z" transform="translate(0 0)"/><circle class="cls-2" cx="211.64" cy="105.77" r="27.37"/></svg>