<svg id="Layer_1" data-name="Layer 1" xmlns="http://www.w3.org/2000/svg" viewBox="0 0 423.28 496.52"><defs><style>.cls-1{fill:#1b1b1b;}.cls-2{fill:#fff;}</style></defs><title>marker-icon-h</title><path class="cls-1" d="M256,8.14c-116.88,0-211.64,94.75-211.64,211.64C44.36,380.14,256,504.66,256,504.66S467.64,380.14,467.64,219.77C467.64,102.89,372.88,8.14,256,8.14Z" transform="translate(-44.36 -8.14)"/><path class="cls-2" d="M130.06,119.92V338.57H383.43V119.92H130.06ZM367.59,322.72H354.34v-73L338.24,166h-1.51a4.31,4.31,0,0,0,4.31-4.31V160a4.31,4.31,0,0,0-4.31-4.31H315.87a4.31,4.31,0,0,0-4.31,4.31v1.72a4.31,4.31,0,0,0,4.31,4.31h-1.51l-16.1,83.66v73H284.81v-73L268.7,166H267.2a4.31,4.31,0,0,0,4.31-4.31V160a4.31,4.31,0,0,0-4.31-4.31H246.33A4.31,4.31,0,0,0,242,160v1.72a4.31,4.31,0,0,0,4.31,4.31h-1.51l-16.1,83.66v73H214.83v-73L198.73,166h-1.51a4.31,4.31,0,0,0,4.31-4.31V160a4.31,4.31,0,0,0-4.31-4.31H176.36A4.31,4.31,0,0,0,172,160v1.72a4.31,4.31,0,0,0,4.31,4.31h-1.51l-16.1,83.66v73H145.9v-187H367.59v187Z" transform="translate(-44.36 -8.14)"/></svg>